<?xml version="1.0" encoding="UTF-8" standalone="no"?>
<!-- Created with Inkscape (http://www.inkscape.org/) -->

<svg
   width="3840"
   height="2160"
   viewBox="0 0 1015.9999 571.49994"
   version="1.1"
   id="svg14"
   inkscape:version="1.2.2 (b0a8486541, 2022-12-01)"
   sodipodi:docname="dark.svg"
   xml:space="preserve"
   inkscape:export-filename="../cloud-d.png"
   inkscape:export-xdpi="96"
   inkscape:export-ydpi="96"
   xmlns:inkscape="http://www.inkscape.org/namespaces/inkscape"
   xmlns:sodipodi="http://sodipodi.sourceforge.net/DTD/sodipodi-0.dtd"
   xmlns="http://www.w3.org/2000/svg"
   xmlns:svg="http://www.w3.org/2000/svg"><sodipodi:namedview
     id="namedview16"
     pagecolor="#242424"
     bordercolor="#ffffff"
     borderopacity="0.24705882"
     inkscape:showpageshadow="2"
     inkscape:pageopacity="1"
     inkscape:pagecheckerboard="0"
     inkscape:deskcolor="#000000"
     inkscape:document-units="mm"
     showgrid="false"
     inkscape:zoom="0.23634705"
     inkscape:cx="1334.9014"
     inkscape:cy="1419.5227"
     inkscape:window-width="1920"
     inkscape:window-height="1048"
     inkscape:window-x="0"
     inkscape:window-y="32"
     inkscape:window-maximized="1"
     inkscape:current-layer="layer1" /><defs
     id="defs11" /><g
     inkscape:label="wall (paper)"
     inkscape:groupmode="layer"
     id="layer1"><rect
       style="fill:#242424;fill-opacity:1;stroke-width:0.409233"
       id="rect2224"
       width="1016.0065"
       height="571.50543"
       x="-0.0024628453"
       y="-0.0021711891"
       inkscape:label="dark-01" /><g
       id="g7669"
       transform="translate(538.72145,711.36844)"
       inkscape:label="comp (osite)"><path
         id="path331-5-6-2-3"
         style="fill:#282828;fill-opacity:1;stroke-width:0.906499"
         d="m -451.14448,-617.79044 a 152.78705,152.78705 0 0 0 -152.78686,152.78674 152.78705,152.78705 0 0 0 65.5412,125.05806 v 27.73042 h 87.24566 928.62028 v -26.0512 a 152.78705,152.78705 0 0 0 67.786,-126.73728 152.78705,152.78705 0 0 0 -152.7879,-152.78674 152.78705,152.78705 0 0 0 -140.764,94.09981 152.78705,152.78705 0 0 0 -141.06107,-94.09981 152.78705,152.78705 0 0 0 -139.91623,91.82635 152.78705,152.78705 0 0 0 -140.05189,-91.82635 152.78705,152.78705 0 0 0 -140.76559,94.09981 152.78705,152.78705 0 0 0 -141.0596,-94.09981 z"
         inkscape:label="dark-02" /><path
         id="path331-5-6-6"
         style="fill:#2c2c2c;fill-opacity:1;stroke-width:0.906499"
         d="m -451.14445,-554.93866 a 152.78705,152.78705 0 0 0 -152.78689,152.78683 152.78705,152.78705 0 0 0 65.54121,125.05802 v 27.73042 h 87.24568 928.62025 v -26.05112 a 152.78705,152.78705 0 0 0 67.786,-126.73732 152.78705,152.78705 0 0 0 -152.7879,-152.78683 152.78705,152.78705 0 0 0 -140.764,94.09992 152.78705,152.78705 0 0 0 -141.06106,-94.09992 152.78705,152.78705 0 0 0 -139.91625,91.82646 152.78705,152.78705 0 0 0 -140.05186,-91.82646 152.78705,152.78705 0 0 0 -140.76556,94.09992 152.78705,152.78705 0 0 0 -141.05962,-94.09992 z"
         inkscape:label="dark-03" /><path
         id="path331-5-1"
         style="fill:#303030;fill-opacity:1;stroke-width:0.906499"
         d="m -451.14463,-495.45873 a 152.78705,152.78705 0 0 0 -152.78681,152.78683 152.78705,152.78705 0 0 0 65.54118,125.05806 v 27.73039 h 87.24563 928.62033 v -26.05114 a 152.78705,152.78705 0 0 0 67.7862,-126.73731 152.78705,152.78705 0 0 0 -152.78809,-152.78683 152.78705,152.78705 0 0 0 -140.764,94.09992 152.78705,152.78705 0 0 0 -141.06108,-94.09992 152.78705,152.78705 0 0 0 -139.91627,91.82646 152.78705,152.78705 0 0 0 -140.05191,-91.82646 152.78705,152.78705 0 0 0 -140.76561,94.09992 152.78705,152.78705 0 0 0 -141.05957,-94.09992 z"
         inkscape:label="dark-04" /><path
         id="path331-0"
         style="fill:#343434;fill-opacity:1;stroke-width:0.906499"
         d="m -451.14462,-435.37957 a 152.78705,152.78705 0 0 0 -152.78683,152.78683 152.78705,152.78705 0 0 0 65.5412,125.05805 v 27.73039 h 87.24563 928.62032 v -26.05114 a 152.78705,152.78705 0 0 0 67.7862,-126.7373 152.78705,152.78705 0 0 0 -152.78809,-152.78683 152.78705,152.78705 0 0 0 -140.764,94.09992 152.78705,152.78705 0 0 0 -141.06108,-94.09992 152.78705,152.78705 0 0 0 -139.91627,91.82646 152.78705,152.78705 0 0 0 -140.0519,-91.82646 152.78705,152.78705 0 0 0 -140.76559,94.09992 152.78705,152.78705 0 0 0 -141.05959,-94.09992 z"
         inkscape:label="dark-05" /></g></g></svg>
