<?xml version="1.0" encoding="UTF-8" standalone="no"?>
<!-- Created with Inkscape (http://www.inkscape.org/) -->

<svg
   width="3840"
   height="2160"
   viewBox="0 0 1015.9999 571.49994"
   version="1.1"
   id="svg14"
   inkscape:version="1.2.2 (b0a8486541, 2022-12-01)"
   sodipodi:docname="lite.svg"
   xml:space="preserve"
   inkscape:export-filename="../cloud-l.webp"
   inkscape:export-xdpi="96"
   inkscape:export-ydpi="96"
   xmlns:inkscape="http://www.inkscape.org/namespaces/inkscape"
   xmlns:sodipodi="http://sodipodi.sourceforge.net/DTD/sodipodi-0.dtd"
   xmlns="http://www.w3.org/2000/svg"
   xmlns:svg="http://www.w3.org/2000/svg"><sodipodi:namedview
     id="namedview16"
     pagecolor="#1a73e8"
     bordercolor="#000000"
     borderopacity="0.25"
     inkscape:showpageshadow="2"
     inkscape:pageopacity="1"
     inkscape:pagecheckerboard="0"
     inkscape:deskcolor="#d1d1d1"
     inkscape:document-units="mm"
     showgrid="false"
     inkscape:zoom="0.11148544"
     inkscape:cx="417.09482"
     inkscape:cy="-94.182702"
     inkscape:window-width="1920"
     inkscape:window-height="1048"
     inkscape:window-x="0"
     inkscape:window-y="32"
     inkscape:window-maximized="1"
     inkscape:current-layer="layer1" /><defs
     id="defs11" /><g
     inkscape:label="wall (paper)"
     inkscape:groupmode="layer"
     id="layer1"><rect
       style="fill:#1a73e8;fill-opacity:1;stroke-width:0.409233"
       id="rect2224"
       width="1016.0065"
       height="571.50543"
       x="0"
       y="0"
       inkscape:label="lite-01" /><g
       id="g7704"
       inkscape:label="comp (osite)"><path
         id="path331-5-6-2"
         style="fill:#4a8bf6;fill-opacity:1;stroke-width:0.906499"
         d="M 87.576616,93.577636 A 152.78705,152.78705 0 0 0 -65.21024,246.36438 152.78705,152.78705 0 0 0 0.3309607,371.42244 v 27.73042 H 87.576616 1016.1969 v -26.0512 A 152.78705,152.78705 0 0 0 1083.9829,246.36438 152.78705,152.78705 0 0 0 931.195,93.577636 152.78705,152.78705 0 0 0 790.431,187.67745 152.78705,152.78705 0 0 0 649.36993,93.577636 152.78705,152.78705 0 0 0 509.4537,185.40399 152.78705,152.78705 0 0 0 369.40181,93.577636 152.78705,152.78705 0 0 0 228.63622,187.67745 152.78705,152.78705 0 0 0 87.576616,93.577636 Z"
         inkscape:label="lite-02" /><path
         id="path331-5-6"
         style="fill:#89b3f6;fill-opacity:1;stroke-width:0.906499"
         d="M 87.576645,156.42942 A 152.78705,152.78705 0 0 0 -65.21024,309.21625 152.78705,152.78705 0 0 0 0.3309707,434.27427 v 27.73042 H 87.576645 1016.1969 V 435.95357 A 152.78705,152.78705 0 0 0 1083.9829,309.21625 152.78705,152.78705 0 0 0 931.195,156.42942 152.78705,152.78705 0 0 0 790.431,250.52934 152.78705,152.78705 0 0 0 649.36994,156.42942 152.78705,152.78705 0 0 0 509.45369,248.25588 152.78705,152.78705 0 0 0 369.40183,156.42942 152.78705,152.78705 0 0 0 228.63627,250.52934 152.78705,152.78705 0 0 0 87.576645,156.42942 Z"
         inkscape:label="lite-03" /><path
         id="path331-5"
         style="fill:#b5d0f9;fill-opacity:1;stroke-width:0.906499"
         d="M 87.576473,215.90935 A 152.78705,152.78705 0 0 0 -65.210342,368.69618 152.78705,152.78705 0 0 0 0.3308387,493.75424 v 27.73039 H 87.576473 1016.1968 V 495.43349 A 152.78705,152.78705 0 0 0 1083.983,368.69618 152.78705,152.78705 0 0 0 931.19491,215.90935 152.78705,152.78705 0 0 0 790.43091,310.00927 152.78705,152.78705 0 0 0 649.36983,215.90935 152.78705,152.78705 0 0 0 509.45356,307.73581 152.78705,152.78705 0 0 0 369.40165,215.90935 152.78705,152.78705 0 0 0 228.63604,310.00927 152.78705,152.78705 0 0 0 87.576473,215.90935 Z"
         inkscape:label="lite-04" /><path
         id="path331"
         style="fill:#e6eefc;fill-opacity:1;stroke-width:0.906499"
         d="M 87.576482,275.98851 A 152.78705,152.78705 0 0 0 -65.210348,428.77534 152.78705,152.78705 0 0 0 0.3308457,553.83339 v 27.73039 H 87.576482 1016.1968 V 555.51264 A 152.78705,152.78705 0 0 0 1083.983,428.77534 152.78705,152.78705 0 0 0 931.19491,275.98851 152.78705,152.78705 0 0 0 790.43091,370.08843 152.78705,152.78705 0 0 0 649.36983,275.98851 152.78705,152.78705 0 0 0 509.45356,367.81497 152.78705,152.78705 0 0 0 369.40166,275.98851 152.78705,152.78705 0 0 0 228.63607,370.08843 152.78705,152.78705 0 0 0 87.576482,275.98851 Z"
         inkscape:label="lite-05" /></g></g></svg>
